<svg xmlns="http://www.w3.org/2000/svg" version="1.1" xmlns:xlink="http://www.w3.org/1999/xlink" xmlns:svgjs="http://svgjs.dev/svgjs" width="1440" height="560" preserveAspectRatio="none" viewBox="0 0 1440 560"><g mask="url(&quot;#SvgjsMask1035&quot;)" fill="none"><rect width="1440" height="560" x="0" y="0" fill="rgba(81, 46, 95, 1)"></rect><path d="M0,528.108C111.735,536.611,229.921,564.294,328.966,511.882C430.566,458.117,505.654,355.596,535.682,244.638C563.981,140.07,502.53,37.189,486.422,-69.937C470.448,-176.17,501.074,-293.144,441.385,-382.462C379.504,-475.06,269.72,-523.273,162.75,-554.276C56.034,-585.206,-60.982,-599.97,-163.804,-557.867C-262.911,-517.285,-323.757,-420.913,-382.166,-331.149C-434.155,-251.251,-469.743,-163.828,-481.737,-69.263C-493.581,24.123,-480.858,116.603,-450.244,205.62C-417.064,302.1,-381.236,404.741,-298.291,464.15C-213.911,524.588,-103.493,520.233,0,528.108" fill="#351e3e"></path><path d="M1440 866.384C1500.311 858.255 1559.329 856.1890000000001 1615.845 833.62 1683.084 806.769 1758.879 784.432 1797.916 723.455 1838.439 660.156 1838.865 578.566 1826.6 504.415 1814.4940000000001 431.225 1777.03 366.10699999999997 1729.4 309.233 1681.152 251.62099999999998 1625.78 193.452 1552.444 177.05200000000002 1480.601 160.985 1407.662 191.41699999999997 1340.854 222.341 1281.218 249.94600000000003 1238.71 299.033 1191.089 344.318 1137.936 394.865 1063.755 432.244 1045.437 503.27 1026.746 575.742 1062.1480000000001 650.302 1094.805 717.645 1126.878 783.784 1163.296 856.432 1230.801 885.519 1296.438 913.8009999999999 1369.17 875.931 1440 866.384" fill="#6d3e80"></path></g><defs><mask id="SvgjsMask1035"><rect width="1440" height="560" fill="#ffffff"></rect></mask></defs></svg>